<svg xmlns="http://www.w3.org/2000/svg" viewBox="0 0 1024 1024"><defs><path id="A" d="M0 28 8 0 16 28M3 19h10"/><path id="C" d="M15 5q-13-7-13 9t13 9"/><path id="E" d="M16 0H0v28h16M0 14h12"/><path id="L" d="M0 0v28h14"/><path id="N" d="M0 28V0l16 28V0"/><path id="O" d="M8 0a8 14 0 0 0 0 28a8 14 0 0 0 0-28z"/><path id="R" d="M0 28V0h7q9 0 9 8t-9 8H0m7 0 9 12"/><path id="U" d="M0 0v18q0 10 8 10t8-10V0"/><path id="V" d="M0 0 8 28 16 0"/><path id="Y" d="M0 0 8 14 16 0M8 14v14"/><path id="hr" d="M462 292q6-104 123-106t123 106q-24-52-62-72-61 24-122 0-38 20-62 72z"/><path id="bd" d="M476 344q34 62 109 64t109-64q13 64-23 96-30 30-86 30t-86-30q-36-32-23-96z"/><path id="ms" d="M520 364q65-14 130 0-6 20-65 20t-65-20z"/><path id="sp" d="M512 218l-5-13M532 206l-11-25M554 198l-4-15M576 193l6-21M600 195l7-13M622 203l8-23M644 215l12-15M664 230l7-12"/><pattern id="h" width="11" height="11" patternUnits="userSpaceOnUse" patternTransform="rotate(28)"><path d="M3 0v7M8 4v7" stroke="#241a0e" stroke-width="2.4" stroke-linecap="round"/></pattern><pattern id="g" width="26" height="26" patternUnits="userSpaceOnUse" patternTransform="rotate(-42)"><rect width="11" height="26" fill="#fff"/></pattern><g id="hd" stroke-linecap="round" stroke-linejoin="round"><ellipse rx="36" ry="32"/><path d="M-31-24v-42M-10-30v-54M11-30v-52M32-24v-40M-38-4l-32-18" fill="none"/></g><rect id="wn" width="42" height="64" rx="3" fill="#2b3036"/><path id="tr" d="M0 0 50 70 100 0"/><g id="cn"><circle cy="-64" r="38"/><circle cy="-64" r="26" fill="none" stroke-width="5"/><path d="M-15-30v30M13-30v30M-15 0h-10M13 0h10" fill="none"/></g><g id="cap" transform="translate(38 908) scale(2.3)" fill="none" stroke-linecap="round" stroke-linejoin="round"><use href="#Y" x="0"/><use href="#O" x="22"/><use href="#U" x="44"/><use href="#C" x="88"/><use href="#A" x="110"/><use href="#N" x="132"/><use href="#N" x="176"/><use href="#E" x="198"/><use href="#V" x="220"/><use href="#E" x="242"/><use href="#R" x="264"/><use href="#L" x="308"/><use href="#E" x="330"/><use href="#A" x="352"/><use href="#V" x="374"/><use href="#E" x="396"/></g></defs><rect width="1024" height="1024" fill="#e7e5e1"/><path d="M0 830h1024v50H0z" fill="#c3c3c3"/><path d="M520 82a72 72 0 1 0 0 144 42 72 0 1 1 0-144z" fill="#e7e5e1" stroke="#111" stroke-width="10"/><g stroke="#111" stroke-width="10" stroke-linejoin="round" stroke-linecap="round"><path d="M560 40h464v790H560z" fill="#f2ece0"/><path d="M580 250h320v100H580z" fill="#75757c"/><path d="M598 268h284v64H598z" fill="#f2ece0"/><path d="M586 740V584a154 154 0 0 1 308 0v156z" fill="#75757c"/></g><use href="#wn" x="596" y="70"/><use href="#wn" x="676" y="70"/><use href="#wn" x="756" y="70"/><use href="#wn" x="836" y="70"/><use href="#wn" x="916" y="70"/><use href="#wn" x="596" y="160"/><use href="#wn" x="676" y="160"/><use href="#wn" x="756" y="160"/><use href="#wn" x="836" y="160"/><use href="#wn" x="916" y="160"/><use href="#wn" x="902" y="500"/><use href="#wn" x="964" y="500"/><use href="#wn" x="902" y="610"/><use href="#wn" x="964" y="610"/><g stroke="#111" stroke-width="10" stroke-linejoin="round" stroke-linecap="round" fill="#f2ece0"><use href="#cn" x="600" y="740"/></g><g stroke="#111" stroke-width="10" stroke-linejoin="round" stroke-linecap="round"><path d="M600 740V598a140 140 0 0 1 280 0v142z" fill="#1f1f23"/></g><g stroke="#111" stroke-width="10" stroke-linejoin="round" stroke-linecap="round"><path d="M120 740V512q0-76 76-96h208q76 20 76 96v228z" fill="#1f1f23"/><path d="M300 440 196 430q-70-146-26-240 26 146 130 250z" fill="#1f1f23"/><path d="M300 440 404 430q70-146 26-240-26 146-130 250z" fill="#1f1f23"/><path d="M272 346h56v148h-56z" fill="#f2cfa6"/><path d="M172 740V536q0-60 58-72h140q58 12 58 72v204z" fill="#6ba3d0"/></g><path d="M300 516v224" fill="none" stroke="#4a80bd" stroke-width="7"/><path d="M400 494q100 6 126-134" fill="none" stroke="#111" stroke-width="62" stroke-linecap="round"/><path d="M400 494q100 6 126-134" fill="none" stroke="#6ba3d0" stroke-width="48" stroke-linecap="round"/><path d="M196 500q-70 40-62 96" fill="none" stroke="#111" stroke-width="62" stroke-linecap="round"/><path d="M196 500q-70 40-62 96" fill="none" stroke="#6ba3d0" stroke-width="48" stroke-linecap="round"/><use href="#hd" transform="translate(532 352) rotate(8)" fill="#111" stroke="#111" stroke-width="26"/><use href="#hd" transform="translate(532 352) rotate(8)" fill="#f2cfa6" stroke="#f2cfa6" stroke-width="14"/><g stroke="#111" stroke-width="10" stroke-linejoin="round" stroke-linecap="round"><path d="M300 486 258 464v44zM300 486 342 464v44z" fill="#ed1c24"/><circle cx="300" cy="486" r="12" fill="#ed1c24"/></g><g stroke="#111" stroke-width="10" stroke-linejoin="round" stroke-linecap="round"><ellipse cx="130" cy="602" rx="32" ry="29" fill="#f2cfa6"/></g><g fill="none" stroke="#111" stroke-width="6" stroke-linecap="round"><path d="M110 592q9 9 0 17M126 588q9 10 0 18M142 590q8 9 0 17"/></g><g fill="none" stroke="#c8912f" stroke-width="9" stroke-linecap="round"><circle cx="130" cy="640" r="15"/><path d="M130 655v42M130 690h14M130 677h12"/></g><g transform="translate(-110.2 72.5) scale(0.7)"><g stroke="#111" stroke-width="9" stroke-linejoin="round"><ellipse cx="454" cy="330" rx="19" ry="27" fill="#f2cfa6"/><ellipse cx="716" cy="330" rx="19" ry="27" fill="#f2cfa6"/><use href="#sp" fill="none" stroke="#33240f" stroke-width="7" stroke-linecap="round"/><ellipse cx="585" cy="310" rx="130" ry="122" fill="#f2cfa6"/><use href="#hr" fill="#463320"/></g><g stroke="none"><use href="#hr" fill="url(#h)"/><use href="#bd" fill="#bb9668"/><use href="#ms" fill="#bb9668"/><use href="#bd" fill="url(#h)" opacity=".55"/><use href="#ms" fill="url(#h)"/></g><path d="M694 344q13 64-23 96-30 30-86 30t-86-30q-36-32-23-96" fill="none" stroke="#111" stroke-width="9" stroke-linecap="round" stroke-linejoin="round"/><g stroke="#111" stroke-width="9" stroke-linejoin="round"><path d="M530 392 646 378q-58 77-116 14z" fill="#3a2118"/><g fill="#fff" stroke-width="5"><rect x="570" y="387" width="19" height="25" rx="3"/><rect x="593" y="385" width="18" height="24" rx="3"/></g></g><g fill="none" stroke="#111" stroke-linecap="round"><path d="M577 336q-23 24-6 37 20 14 37-5" stroke-width="7"/><path d="M504 288q30-13 60-3M610 268q32-14 60 6" stroke-width="9"/><path d="M490 340l-16 8M492 352l-14 10M680 338l16 8M678 350l14 10" stroke-width="4"/><path d="M530 390q-15-3-23-14M646 376q15-3 23-14" stroke-width="5"/></g><g stroke="#111" stroke-width="4"><ellipse cx="539" cy="331" rx="18" ry="11" fill="#fff"/><ellipse cx="633" cy="330" rx="18" ry="11" fill="#fff"/></g><g fill="#111" stroke="none"><ellipse cx="553" cy="331" rx="6" ry="7"/><ellipse cx="647" cy="330" rx="6" ry="7"/></g><path d="M522 331q18-15 35-2M616 330q18-14 35 2" fill="none" stroke="#111" stroke-width="8" stroke-linecap="round"/><g stroke="none"><circle cx="540" cy="325" r="30" fill="#dff1fa" opacity=".3"/><circle cx="632" cy="325" r="30" fill="#dff1fa" opacity=".3"/><circle cx="540" cy="325" r="30" fill="url(#g)" opacity=".38"/></g><g fill="none" stroke="#111" stroke-width="5.5" stroke-linecap="round"><circle cx="540" cy="325" r="30"/><circle cx="632" cy="325" r="30"/><path d="M570 320q16-9 32 0M510 320l-32-7M662 320l32-7"/></g></g><g fill="none" stroke="#111" stroke-width="10" stroke-linejoin="round"><use href="#tr" x="0" y="756"/><use href="#tr" x="100" y="756"/><use href="#tr" x="200" y="756"/><use href="#tr" x="300" y="756"/><use href="#tr" x="400" y="756"/><use href="#tr" x="500" y="756"/><path d="M0 826H600"/></g><g stroke="#111" stroke-width="10" stroke-linejoin="round" stroke-linecap="round"><path d="M0 740h600v18H0z" fill="#9aa0a6"/></g><g stroke="#111" stroke-width="10" stroke-linejoin="round" stroke-linecap="round" fill="#f2ece0"><use href="#cn" x="230" y="740"/><use href="#cn" x="322" y="740"/><use href="#cn" x="414" y="740"/><use href="#cn" x="506" y="740"/></g><use href="#cap" stroke="#111" stroke-width="13"/><use href="#cap" stroke="#ed1c24" stroke-width="8"/></svg>